<?xml version="1.0" standalone="no"?>
<!DOCTYPE svg PUBLIC "-//W3C//DTD SVG 20010904//EN"
 "http://www.w3.org/TR/2001/REC-SVG-20010904/DTD/svg10.dtd">
<svg version="1.0" xmlns="http://www.w3.org/2000/svg"
 width="512.000000pt" height="512.000000pt" viewBox="0 0 512.000000 512.000000"
 preserveAspectRatio="xMidYMid meet">

<g transform="translate(0.000000,512.000000) scale(0.100000,-0.100000)"
fill="#000000" stroke="none">
<path d="M2260 5089 c-47 -5 -168 -13 -270 -18 -279 -15 -467 -58 -675 -156
-463 -216 -817 -654 -975 -1205 -69 -239 -99 -515 -81 -751 6 -80 14 -159 17
-176 5 -27 2 -31 -27 -43 -18 -8 -58 -31 -88 -51 -64 -42 -108 -115 -138 -229
-21 -80 -23 -301 -5 -500 14 -145 19 -293 13 -405 -5 -100 13 -150 74 -211 56
-56 122 -87 227 -104 128 -20 299 -5 434 40 36 12 66 20 68 19 1 -2 16 -31 32
-64 97 -197 339 -333 602 -338 53 -1 172 5 265 12 176 16 338 11 927 -24 826
-50 1251 18 1487 238 36 34 79 85 95 114 28 50 45 63 62 45 4 -4 21 -12 38
-18 l31 -10 4 -230 c3 -126 2 -284 -2 -351 l-7 -123 -407 0 -406 0 -10 22
c-20 46 -55 53 -275 54 -113 1 -289 2 -392 3 l-188 1 -76 -36 c-130 -61 -194
-147 -194 -260 0 -119 43 -190 142 -233 29 -13 62 -28 73 -34 14 -8 141 -12
400 -12 364 0 382 1 430 21 28 11 56 28 64 37 12 15 53 17 410 17 423 0 524 8
632 49 146 56 219 153 262 351 17 79 20 132 21 315 1 121 -2 265 -7 320 l-7
100 44 18 c57 24 129 87 161 142 14 23 35 80 47 126 19 77 20 100 14 284 -3
110 -10 254 -15 320 -6 77 -6 158 1 225 12 126 2 186 -44 255 -37 55 -91 94
-156 110 l-47 12 5 99 c11 219 3 515 -19 660 -93 623 -402 1069 -920 1327
-277 138 -558 211 -946 247 -127 12 -580 11 -705 -1z m820 -94 c256 -7 453
-51 663 -148 458 -213 814 -689 941 -1259 48 -216 59 -333 52 -553 -4 -110 -9
-216 -12 -236 l-6 -36 -110 -1 -110 -1 6 27 c14 59 18 449 7 567 -44 450 -213
797 -498 1021 -113 90 -164 121 -293 183 -337 160 -794 230 -1325 201 -110 -6
-279 -15 -375 -20 -200 -10 -304 -28 -428 -72 -475 -166 -822 -588 -946 -1149
-40 -183 -49 -289 -43 -507 3 -108 8 -207 12 -219 7 -23 7 -23 -104 -23 l-111
0 0 259 c0 490 34 717 149 995 251 609 784 922 1666 980 51 3 618 -3 865 -9z
m124 -356 c390 -41 721 -254 936 -604 177 -288 273 -683 257 -1055 -10 -219
-14 -235 -54 -254 -18 -9 -35 -16 -38 -16 -2 0 -11 26 -20 58 -17 57 -63 159
-110 241 -30 52 -31 98 -13 324 23 286 -28 416 -176 447 -166 34 -298 -104
-298 -312 0 -66 -2 -78 -16 -78 -9 0 -78 9 -152 19 -585 84 -1330 84 -1905 0
-77 -11 -149 -22 -160 -25 -19 -5 -20 0 -20 98 -1 126 -23 187 -92 248 -107
94 -248 63 -346 -78 l-32 -47 -3 -298 -4 -297 -38 -67 c-22 -36 -51 -99 -65
-138 l-27 -72 -45 16 -45 16 5 350 c4 383 12 455 69 635 126 400 390 666 790
795 175 57 358 88 633 109 96 7 871 -5 969 -15z m-1994 -925 c74 -30 97 -102
92 -285 l-3 -107 -57 -37 c-31 -21 -78 -55 -103 -76 l-46 -39 -7 183 c-4 112
-3 205 4 242 5 33 10 63 10 67 0 11 51 68 61 68 5 0 27 -7 49 -16z m2768 -17
c44 -47 72 -256 57 -431 l-7 -86 -46 39 c-26 21 -73 55 -104 75 l-58 37 -2 87
c-5 204 2 245 50 277 46 31 82 32 110 2z m-1373 -323 c179 -12 313 -15 528
-10 313 7 369 1 496 -49 372 -145 616 -586 585 -1055 -4 -69 -8 -271 -9 -450
0 -364 -6 -413 -71 -545 -44 -91 -80 -128 -164 -170 -227 -115 -503 -154 -934
-135 -122 6 -241 12 -266 15 -137 15 -515 25 -620 16 -368 -33 -420 -35 -550
-23 -70 7 -166 22 -212 33 -232 58 -397 196 -453 379 -24 81 -32 1009 -10
1180 33 256 99 398 255 550 165 161 393 252 702 280 127 11 406 5 723 -16z
m-2015 -688 c-21 -19 -192 -117 -197 -113 -2 2 26 32 62 66 59 55 70 61 108
61 35 0 39 -2 27 -14z m3885 -5 c-16 -10 -32 -16 -35 -14 -8 7 32 33 49 33 9
0 3 -8 -14 -19z m235 -14 c-30 -18 -82 -48 -115 -66 l-60 -34 65 67 c63 64 66
66 115 66 l50 0 -55 -33z m180 -32 c7 -9 11 -17 9 -19 -14 -12 -221 -127 -224
-124 -5 5 179 158 191 158 6 0 17 -7 24 -15z m-4100 -95 c0 -14 -228 -155
-236 -147 -2 2 47 44 109 94 108 86 126 94 127 53z m4173 -15 c6 -15 -14 -32
-98 -80 -27 -16 -60 -35 -72 -43 -13 -8 -23 -12 -23 -8 0 7 172 146 181 146 4
0 9 -7 12 -15z m-603 -8 c0 -2 -9 -12 -20 -22 -24 -21 -27 -14 -4 9 15 15 24
20 24 13z m-4193 -45 c-20 -20 -27 -23 -27 -10 0 15 41 50 49 42 3 -3 -7 -17
-22 -32z m4235 -102 c-72 -62 -96 -73 -90 -43 3 16 130 102 151 103 5 0 -23
-27 -61 -60z m-3627 23 c-41 -30 -59 -33 -25 -4 19 16 37 27 40 24 3 -2 -4
-11 -15 -20z m4189 -41 c-6 -28 -21 -40 -121 -98 -62 -37 -116 -65 -118 -63
-2 2 51 48 117 102 67 53 123 96 125 94 2 -2 0 -18 -3 -35z m-4619 -21 c-27
-23 -187 -151 -191 -151 -2 0 -4 11 -4 25 0 20 16 34 93 79 84 50 127 70 102
47z m435 -69 c0 -11 -14 -25 -32 -35 -18 -8 -52 -28 -75 -42 -24 -14 -43 -24
-43 -21 0 5 141 116 147 116 2 0 3 -8 3 -18z m3700 14 c0 -2 -30 -28 -67 -57
-38 -28 -74 -56 -80 -62 -10 -7 -13 -4 -13 12 0 15 20 32 77 66 80 46 83 48
83 41z m488 -78 c-5 -14 -127 -92 -134 -86 -4 5 118 97 129 98 5 0 7 -6 5 -12z
m-388 -13 c0 -7 -233 -195 -242 -195 -4 0 -8 12 -8 28 0 24 13 35 123 99 132
78 127 75 127 68z m-3811 -79 c-18 -17 -117 -72 -104 -58 31 33 111 89 114 80
2 -5 -3 -16 -10 -22z m-574 -31 c-16 -13 -36 -24 -44 -25 -17 0 -11 7 26 31
41 26 52 23 18 -6z m4779 -62 c-10 -16 -263 -167 -269 -161 -2 2 56 51 128
110 123 100 133 106 141 87 6 -13 6 -26 0 -36z m-4664 13 c0 -5 -157 -126
-164 -126 -3 0 -6 8 -6 18 0 11 29 33 83 64 86 50 87 50 87 44z m480 -38 c0
-7 -28 -28 -63 -47 -67 -36 -67 -32 3 23 49 38 60 43 60 24z m3670 -52 c0 -3
-27 -26 -60 -51 -47 -36 -60 -42 -60 -28 0 11 21 30 58 50 62 35 62 35 62 29z
m530 -83 c0 -42 23 -25 -232 -171 -32 -18 -58 -31 -58 -28 0 8 272 236 282
236 4 0 8 -17 8 -37z m-390 23 c0 -5 -258 -216 -264 -216 -3 0 -6 15 -6 33 0
31 5 36 133 110 136 79 137 79 137 73z m-3800 -11 c0 -2 -15 -12 -32 -20 l-33
-16 25 20 c24 20 40 26 40 16z m-583 -55 c-72 -55 -77 -57 -77 -36 0 13 113
85 134 86 5 0 -21 -22 -57 -50z m593 -78 c0 -24 -18 -39 -110 -91 -44 -25 -67
-34 -55 -22 33 33 149 130 158 131 4 0 7 -8 7 -18z m-540 -16 c0 -7 -109 -86
-120 -86 -26 0 -5 22 53 54 65 37 67 38 67 32z m4360 -10 c0 -5 -288 -246
-295 -246 -3 0 -5 19 -3 41 l3 42 145 83 c145 84 150 87 150 80z m360 -35 c0
-30 -2 -31 -172 -128 -5 -2 -8 -2 -8 1 0 5 171 156 176 156 2 0 4 -13 4 -29z
m-4760 -114 c0 -2 -13 -13 -30 -25 -16 -13 -30 -18 -30 -13 0 6 12 17 28 25
29 17 32 18 32 13z m200 -11 c-8 -8 -53 -46 -100 -85 -79 -65 -86 -69 -103
-54 -9 9 -14 20 -10 24 9 9 216 128 223 129 2 0 -2 -6 -10 -14z m4235 -16 c-9
-15 -237 -210 -245 -210 -3 0 -17 10 -30 22 -19 18 -21 23 -9 30 101 60 285
167 287 168 2 0 0 -5 -3 -10z m25 -175 c-36 -37 -51 -45 -80 -45 -34 0 -33 1
40 45 41 24 77 44 80 45 2 0 -16 -20 -40 -45z m-4097 -10 c-39 -47 -63 -59
-104 -53 -20 3 -10 12 56 50 44 26 81 48 83 48 2 0 -14 -20 -35 -45z m-213 5
c-36 -31 -50 -37 -50 -20 0 8 66 49 80 49 3 0 -11 -13 -30 -29z m4492 -10
c-31 -29 -52 -38 -52 -22 0 6 66 48 80 51 3 0 -10 -13 -28 -29z m-154 -489
c-4 -449 -5 -452 -83 -539 -49 -54 -129 -96 -215 -112 -76 -14 -232 -12 -458
6 -114 9 -240 14 -299 11 l-103 -6 0 129 0 130 27 7 c16 3 162 2 326 -3 341
-11 419 -6 482 30 99 59 118 140 113 489 l-4 257 109 -1 108 -2 -3 -396z
m-1963 -297 c-34 -26 -55 -36 -55 -25 0 13 41 41 60 41 11 -1 10 -4 -5 -16z
m305 12 c0 -4 -199 -120 -250 -146 -14 -7 11 24 55 69 l80 81 57 0 c32 0 58
-2 58 -4z m293 -5 c25 -5 13 -15 -130 -98 -87 -51 -180 -104 -208 -119 l-50
-27 25 25 c14 14 73 71 133 127 106 100 108 101 155 100 26 -1 60 -4 75 -8z
m87 -103 c0 -7 -24 -26 -53 -41 l-52 -29 45 41 c48 43 60 49 60 29z m-840
-113 c-48 -49 -60 -54 -60 -27 0 14 78 70 100 72 2 0 -16 -20 -40 -45z m181
-85 c-63 -61 -120 -110 -126 -110 -16 0 -62 52 -50 57 6 2 71 39 145 83 74 43
137 79 140 79 3 0 -46 -49 -109 -109z m254 -9 c-6 -5 -46 -39 -90 -75 -68 -57
-85 -66 -119 -66 -50 0 -47 3 94 84 112 64 134 75 115 57z m130 -86 c-48 -44
-67 -55 -94 -55 -22 0 -31 4 -25 9 15 15 158 100 169 100 6 0 -17 -24 -50 -54z
m213 -16 c-12 -35 -24 -42 -70 -37 l-33 3 55 32 c30 18 56 33 57 33 1 0 -3
-14 -9 -31z"/>
<path d="M3163 3024 c-52 -31 -287 -114 -403 -142 -241 -59 -376 -45 -578 58
-132 68 -248 99 -375 100 -221 1 -422 -150 -544 -406 -19 -41 -39 -77 -44 -80
-5 -3 -9 -14 -9 -24 0 -11 -13 -66 -29 -122 -46 -166 -65 -318 -64 -528 0
-204 14 -331 45 -402 24 -56 91 -121 155 -151 27 -12 58 -32 70 -44 17 -17 30
-21 52 -17 17 4 63 -1 103 -10 183 -39 486 -46 968 -21 162 9 318 16 345 15
28 0 88 3 134 6 58 4 92 2 108 -7 18 -10 28 -10 46 0 16 9 54 11 123 7 54 -2
158 -7 229 -11 118 -6 137 -4 195 15 112 38 177 94 226 196 71 149 91 336 75
680 -12 261 -27 338 -91 473 -53 110 -112 192 -194 268 -124 116 -234 163
-396 169 -98 4 -108 2 -147 -22z m-1271 -73 c4 -3 -70 -50 -163 -104 -94 -54
-172 -97 -173 -95 -2 2 48 52 111 111 l114 109 52 -7 c29 -4 55 -10 59 -14z
m1367 15 c-5 -5 -175 -103 -204 -118 -42 -22 3 11 89 66 50 31 97 56 105 56 8
0 12 -2 10 -4z m176 -32 c21 -8 34 -19 29 -23 -5 -5 -202 -120 -439 -256 -236
-136 -446 -257 -465 -268 -100 -59 23 26 408 280 235 155 428 282 428 282 1 1
18 -6 39 -15z m-1376 -35 c17 -6 31 -14 31 -18 0 -6 -86 -57 -340 -202 -30
-17 -48 -24 -40 -16 22 23 304 246 311 247 3 0 20 -5 38 -11z m1511 -43 c0 -2
-46 -30 -102 -62 -57 -31 -114 -64 -128 -73 -14 -8 -21 -11 -17 -6 14 17 222
144 235 145 6 0 12 -2 12 -4z m-1325 -25 c23 -9 32 -3 -165 -116 -74 -43 -151
-87 -170 -98 -58 -34 -22 -4 135 112 83 61 157 110 165 110 8 0 24 -4 35 -8z
m530 -30 c-8 -6 -258 -151 -590 -341 -75 -43 -21 -3 209 155 206 141 237 159
294 171 36 7 67 16 70 19 3 3 10 5 16 5 6 0 6 -3 1 -9z m-321 -19 c4 -7 -452
-279 -488 -291 -6 -2 84 64 199 147 179 129 215 151 247 152 20 0 39 -4 42 -8z
m1186 1 c0 -5 -30 -25 -68 -45 -37 -21 -92 -52 -122 -70 -87 -50 -49 -20 68
54 106 67 122 75 122 61z m74 -88 c6 -18 14 -13 -233 -154 -174 -100 -234
-129 -205 -102 15 15 417 271 425 271 4 0 9 -7 13 -15z m-2179 -63 c-6 -5 -66
-53 -133 -106 -85 -67 -122 -91 -118 -77 3 12 8 29 11 39 3 9 58 47 123 84
114 66 136 77 117 60z m2235 -44 c0 -7 -71 -53 -157 -103 -167 -95 -185 -104
-168 -86 14 15 308 201 318 201 4 0 7 -6 7 -12z m47 -133 l11 -35 -141 -81
c-131 -77 -141 -81 -154 -63 -7 10 -13 20 -13 23 1 6 271 189 281 190 3 1 10
-15 16 -34z m-2317 -19 c0 -3 -53 -43 -117 -91 -91 -67 -119 -83 -121 -70 -5
23 1 28 125 100 122 71 113 66 113 61z m343 -13 c-7 -2 -19 -2 -25 0 -7 3 -2
5 12 5 14 0 19 -2 13 -5z m2 -73 c3 -5 -11 -32 -31 -60 -20 -27 -32 -50 -27
-50 4 0 34 16 67 35 65 40 69 38 101 -30 13 -29 12 -32 -23 -69 l-37 -38 43
21 42 21 0 -68 c0 -53 -6 -79 -26 -121 -41 -82 -87 -101 -157 -64 -28 14 -28
15 -10 35 18 21 18 21 -5 9 -28 -15 -37 -9 -61 37 l-19 37 31 39 31 38 -32
-16 c-17 -9 -33 -16 -37 -16 -12 0 -4 133 11 168 22 54 72 102 105 102 15 0
30 -4 34 -10z m1440 -11 c4 -5 0 -18 -9 -28 -26 -29 -18 -34 18 -13 l34 20 20
-21 c28 -32 44 -66 36 -79 -4 -6 -3 -8 3 -5 14 9 33 -68 33 -135 0 -107 -92
-184 -175 -146 -33 15 -32 25 7 65 36 37 29 42 -20 13 -18 -11 -37 -20 -41
-20 -5 0 -17 23 -26 51 -16 47 -16 51 0 69 16 18 16 18 -6 13 -21 -6 -22 -5
-15 48 9 72 40 133 79 158 36 23 53 26 62 10z m-1710 -18 c-6 -6 -80 -60 -165
-121 -137 -97 -155 -108 -158 -89 -2 12 0 25 6 31 9 9 314 187 322 188 2 0 0
-4 -5 -9z m2273 -13 c-3 -7 -70 -50 -149 -96 -169 -98 -168 -92 2 23 120 81
155 98 147 73z m11 -121 c-15 -12 -102 -58 -94 -50 20 20 89 62 94 58 2 -3 2
-6 0 -8z m-2289 -34 c-1 -5 -73 -57 -161 -117 -150 -101 -160 -106 -157 -81 3
24 24 40 153 115 151 89 165 96 165 83z m2300 -106 c0 -32 -4 -35 -222 -160
-121 -70 -222 -126 -224 -125 -3 4 429 316 439 317 4 1 7 -14 7 -32z m-820
-72 c0 -2 -10 -9 -22 -15 -22 -11 -22 -10 -4 4 21 17 26 19 26 11z m-1410 -60
c10 -12 -18 -34 -178 -140 -105 -69 -193 -125 -196 -125 -3 0 -6 15 -6 33 0
32 4 35 183 139 100 59 183 107 183 107 1 1 7 -6 14 -14z m1155 -4 c-6 -4 -64
-45 -131 -89 -77 -51 -125 -77 -133 -72 -9 5 20 27 85 65 55 32 117 68 139 81
42 25 56 30 40 15z m1070 -11 c-3 -5 -16 -15 -28 -21 -19 -9 -19 -8 3 10 28
23 34 26 25 11z m-2530 -36 c-25 -20 -75 -46 -75 -40 0 5 82 56 90 56 3 -1 -4
-8 -15 -16z m2529 -103 c-13 -11 -130 -76 -123 -67 22 25 125 93 128 85 2 -6
-1 -14 -5 -18z m-1809 0 c-6 -5 -148 -97 -317 -206 -230 -147 -313 -195 -328
-190 -11 3 -20 9 -20 13 1 6 657 390 670 391 2 1 0 -3 -5 -8z m1115 -75 c-8
-8 -125 -93 -260 -190 l-245 -176 -57 0 c-32 0 -58 4 -58 8 0 7 615 370 630
371 2 1 -2 -5 -10 -13z m-720 -3 c-1 -5 -123 -90 -273 -191 l-272 -183 -78 3
-78 3 323 187 c291 169 379 211 378 181z m-955 -12 c-26 -24 -209 -131 -218
-128 -6 2 41 33 104 70 113 66 132 75 114 58z m573 -46 c-3 -3 -114 -75 -247
-160 -178 -113 -246 -152 -262 -148 -16 5 -18 8 -8 14 130 76 515 298 518 299
2 0 2 -2 -1 -5z m1786 -24 c-5 -4 -27 -18 -49 -30 l-40 -23 45 42 c25 24 46
37 48 30 2 -6 0 -15 -4 -19z m-2274 5 c0 -2 -22 -18 -48 -34 -26 -16 -85 -53
-131 -81 -46 -29 -81 -47 -79 -41 2 7 60 45 128 86 134 78 130 76 130 70z
m960 -30 c0 -2 -87 -61 -194 -131 -152 -99 -201 -126 -223 -123 -23 2 10 25
192 130 230 133 225 130 225 124z m1000 -109 c-8 -7 -51 -45 -95 -83 -44 -38
-84 -75 -88 -81 -5 -8 -32 -13 -75 -13 l-67 0 165 95 c91 52 167 95 170 95 2
0 -2 -6 -10 -13z m-250 -1 c0 -2 -44 -36 -97 -76 -54 -41 -102 -79 -106 -87
-5 -7 -26 -13 -49 -13 -56 0 -48 6 115 101 146 85 137 80 137 75z m-760 -30
c0 -10 -162 -107 -172 -104 -7 3 28 27 78 56 94 54 94 54 94 48z m440 -41 c0
-10 -120 -85 -137 -85 -10 0 16 20 57 45 81 48 80 47 80 40z m686 -33 c-16
-18 -45 -33 -74 -40 -26 -6 -48 -9 -49 -8 -1 1 30 21 70 43 39 23 74 40 76 37
3 -2 -8 -17 -23 -32z"/>
</g>
</svg>
